<svg width="21" height="16" viewBox="0 0 21 16" fill="none" xmlns="http://www.w3.org/2000/svg">
<path d="M2.64438 9.49574L0.738632 14.8318C0.622338 15.1575 0.863739 15.5 1.2095 15.5H19.0464C19.3226 15.5 19.5464 15.2761 19.5464 15V10.1084C19.5464 10.0369 19.5311 9.96637 19.5016 9.90137L17.8941 6.3666C17.7273 5.99986 17.2175 5.97086 17.0102 6.31633L16.4985 7.1692C16.2895 7.51748 15.7745 7.48447 15.6117 7.11236L12.9853 1.10919C12.8065 0.700619 12.2228 0.712737 12.0612 1.12837L9.37998 8.0229C9.22752 8.41496 8.68856 8.45498 8.47986 8.08975L7.48489 6.34855C7.28257 5.9945 6.76432 6.01849 6.59558 6.38972L4.89402 10.1331C4.72729 10.5 4.2174 10.529 4.01009 10.1835L3.544 9.40666C3.32678 9.04463 2.78638 9.09814 2.64438 9.49574Z" stroke="black"/>
</svg>
