<svg width="20" height="14" viewBox="0 0 20 14" fill="none" xmlns="http://www.w3.org/2000/svg">
<path d="M1 13.5V11M1 8.5V11M1 11H4M4 11V9C4 8.72386 4.22386 8.5 4.5 8.5H7.5M4 11V13C4 13.2761 4.22386 13.5 4.5 13.5H7.5M7.5 8.5H10.5C10.7761 8.5 11 8.72386 11 9V11M7.5 8.5V13.5M7.5 13.5H10.5C10.7761 13.5 11 13.2761 11 13V11M11 11H14M14 11V8.5M14 11V13.5" stroke="black" stroke-linecap="round"/>
<path d="M7.5 11.5L10.5 8.5" stroke="black" stroke-linecap="round"/>
<path d="M8 13.5L11 10.5" stroke="black" stroke-linecap="round"/>
<path d="M2 5.5V3M2 0.5V3M2 3H5.92308M5.92308 3V1C5.92308 0.723858 6.14693 0.5 6.42308 0.5H10.5M5.92308 3V5C5.92308 5.27614 6.14694 5.5 6.42308 5.5H10.5M10.5 0.5H15.5C15.7761 0.5 16 0.723858 16 1V3M10.5 0.5V5.5M10.5 5.5H15.5C15.7761 5.5 16 5.27614 16 5V3M16 3H19M19 3V0.5M19 3V5.5" stroke="black" stroke-linecap="round"/>
<path d="M10.5 3.5L13.5 0.5M16 3L13.5 5.5M15.5 1L11 5.5" stroke="black" stroke-linecap="round"/>
</svg>
