<svg width="23" height="18" viewBox="0 0 23 18" fill="none" xmlns="http://www.w3.org/2000/svg">
<mask id="path-1-inside-1_102_48" fill="white">
<rect y="6.97559" width="6.97559" height="10.4634" rx="0.581299" transform="rotate(-90 0 6.97559)"/>
</mask>
<rect y="6.97559" width="6.97559" height="10.4634" rx="0.581299" transform="rotate(-90 0 6.97559)" stroke="black" stroke-width="2.32519" mask="url(#path-1-inside-1_102_48)"/>
<mask id="path-2-inside-2_102_48" fill="white">
<rect y="7.53662" width="6.97559" height="10.4634" rx="0.581299"/>
</mask>
<rect y="7.53662" width="6.97559" height="10.4634" rx="0.581299" stroke="black" stroke-width="2.32519" mask="url(#path-2-inside-2_102_48)"/>
<mask id="path-3-inside-3_102_48" fill="white">
<rect x="7.53662" y="7.53662" width="6.97559" height="10.4634" rx="0.581299"/>
</mask>
<rect x="7.53662" y="7.53662" width="6.97559" height="10.4634" rx="0.581299" stroke="black" stroke-width="2.32519" mask="url(#path-3-inside-3_102_48)"/>
<mask id="path-4-inside-4_102_48" fill="white">
<rect x="15.0733" y="7.53662" width="6.97559" height="10.4634" rx="0.581299"/>
</mask>
<rect x="15.0733" y="7.53662" width="6.97559" height="10.4634" rx="0.581299" stroke="black" stroke-width="2.32519" mask="url(#path-4-inside-4_102_48)"/>
<mask id="path-5-inside-5_102_48" fill="white">
<rect x="11.5033" y="6.97559" width="6.97559" height="10.4634" rx="0.581299" transform="rotate(-90 11.5033 6.97559)"/>
</mask>
<rect x="11.5033" y="6.97559" width="6.97559" height="10.4634" rx="0.581299" transform="rotate(-90 11.5033 6.97559)" stroke="black" stroke-width="2.32519" mask="url(#path-5-inside-5_102_48)"/>
</svg>
