<svg width="152" height="152" viewBox="0 0 152 152" fill="none" xmlns="http://www.w3.org/2000/svg">
<path d="M0.114418 76.1144C0.0840878 55.9882 8.05007 36.6744 22.2599 22.4216C36.4698 8.16887 55.7595 0.144712 75.8857 0.11438C96.0118 0.0840483 115.326 8.05003 129.578 22.2599C143.831 36.4698 151.855 55.7595 151.886 75.8856L145.331 75.8955C145.303 57.5078 137.972 39.8842 124.951 26.9017C111.929 13.9192 94.2833 6.64125 75.8955 6.66896C57.5078 6.69667 39.8842 14.0277 26.9017 27.0494C13.9192 40.0711 6.64129 57.7167 6.669 76.1045L0.114418 76.1144Z" fill="black"/>
<g filter="url(#filter0_b_450_116)">
<path d="M64.2536 49.1079V47.2233H59.2016V45.4416L62.852 37.7053H65.0296L61.3792 45.4416H64.2536V42.4722H66.1857V45.4416H67.2547V47.2233H66.1857V49.1079H64.2536ZM68.8368 49.0921V47.4292L73.7146 43.0819C74.0947 42.7441 74.3587 42.4247 74.5065 42.1238C74.6543 41.8229 74.7282 41.5325 74.7282 41.2528C74.7282 40.8727 74.6464 40.5348 74.4827 40.2392C74.3191 39.9383 74.0921 39.7007 73.8017 39.5265C73.5167 39.3523 73.1867 39.2652 72.8119 39.2652C72.416 39.2652 72.0649 39.3576 71.7587 39.5424C71.4578 39.7218 71.2229 39.962 71.054 40.2629C70.8851 40.5638 70.8059 40.8885 70.8164 41.2369H68.8527C68.8527 40.4767 69.0216 39.8142 69.3594 39.2494C69.7026 38.6845 70.1724 38.2464 70.7689 37.9349C71.3707 37.6234 72.0649 37.4677 72.8515 37.4677C73.58 37.4677 74.2346 37.6314 74.8153 37.9587C75.396 38.2807 75.8526 38.7294 76.1852 39.3048C76.5178 39.8749 76.6841 40.5322 76.6841 41.2765C76.6841 41.8202 76.6102 42.2769 76.4623 42.6464C76.3145 43.0159 76.0928 43.3564 75.7972 43.6679C75.5068 43.9794 75.1452 44.3251 74.7124 44.7052L71.252 47.7697L71.0778 47.2946H76.6841V49.0921H68.8368ZM83.3419 49.1079L82.075 47.8409L92.2186 37.7053L93.4855 38.9801L83.3419 49.1079ZM91.11 49.3455C90.5873 49.3455 90.1096 49.2188 89.6767 48.9654C89.2491 48.7067 88.906 48.3636 88.6473 47.936C88.3886 47.5031 88.2593 47.0227 88.2593 46.4948C88.2593 45.9775 88.3913 45.5023 88.6552 45.0695C88.9192 44.6366 89.2676 44.2908 89.7005 44.0321C90.1334 43.7735 90.6032 43.6441 91.11 43.6441C91.6326 43.6441 92.1103 43.7735 92.5432 44.0321C92.9761 44.2855 93.3192 44.6287 93.5726 45.0616C93.8313 45.4892 93.9606 45.9669 93.9606 46.4948C93.9606 47.0227 93.8313 47.5031 93.5726 47.936C93.3192 48.3636 92.9761 48.7067 92.5432 48.9654C92.1103 49.2188 91.6326 49.3455 91.11 49.3455ZM91.11 47.7143C91.3264 47.7143 91.527 47.6588 91.7118 47.548C91.9018 47.4371 92.0523 47.2893 92.1631 47.1045C92.274 46.9198 92.3294 46.7165 92.3294 46.4948C92.3294 46.2731 92.274 46.0698 92.1631 45.8851C92.0523 45.7003 91.9018 45.5525 91.7118 45.4416C91.527 45.3308 91.3264 45.2754 91.11 45.2754C90.8883 45.2754 90.685 45.3308 90.5002 45.4416C90.3155 45.5525 90.165 45.7003 90.0489 45.8851C89.938 46.0698 89.8826 46.2731 89.8826 46.4948C89.8826 46.7165 89.938 46.9198 90.0489 47.1045C90.165 47.2893 90.3155 47.4371 90.5002 47.548C90.685 47.6588 90.8883 47.7143 91.11 47.7143ZM84.4505 43.169C83.9279 43.169 83.4501 43.0423 83.0173 42.7889C82.5844 42.5303 82.2386 42.1871 81.9799 41.7595C81.7265 41.3267 81.5998 40.8463 81.5998 40.3184C81.5998 39.801 81.7318 39.3259 81.9958 38.893C82.2597 38.4602 82.6081 38.1144 83.041 37.8557C83.4739 37.597 83.9437 37.4677 84.4505 37.4677C84.9731 37.4677 85.4482 37.597 85.8758 37.8557C86.3087 38.1091 86.6545 38.4522 86.9132 38.8851C87.1718 39.3127 87.3012 39.7905 87.3012 40.3184C87.3012 40.8463 87.1718 41.3267 86.9132 41.7595C86.6545 42.1871 86.3087 42.5303 85.8758 42.7889C85.4482 43.0423 84.9731 43.169 84.4505 43.169ZM84.4505 41.5378C84.6722 41.5378 84.8755 41.4824 85.0602 41.3715C85.245 41.2607 85.3928 41.1129 85.5037 40.9281C85.6145 40.7433 85.67 40.5401 85.67 40.3184C85.67 40.0966 85.6145 39.8934 85.5037 39.7086C85.3928 39.5239 85.245 39.3761 85.0602 39.2652C84.8755 39.1543 84.6722 39.0989 84.4505 39.0989C84.2288 39.0989 84.0255 39.1543 83.8408 39.2652C83.656 39.3761 83.5082 39.5239 83.3973 39.7086C83.2865 39.8934 83.2311 40.0966 83.2311 40.3184C83.2311 40.5401 83.2865 40.7433 83.3973 40.9281C83.5082 41.1129 83.656 41.2607 83.8408 41.3715C84.0255 41.4824 84.2288 41.5378 84.4505 41.5378ZM61.4638 56.9858V56.2375H63.8393V56.9858H61.4638ZM65.8579 59.1079V54.4479L64.7889 55.1011V54.048L65.8579 53.4066H66.8319V59.1079H65.8579ZM69.9714 59.2148C69.6864 59.2148 69.4171 59.1594 69.1637 59.0485C68.9103 58.9377 68.6899 58.7806 68.5025 58.5774C68.3178 58.3741 68.1845 58.1339 68.1027 57.8568L69.0252 57.6074C69.0911 57.8344 69.2112 58.0099 69.3855 58.1339C69.5623 58.2554 69.7563 58.3147 69.9675 58.3121C70.1549 58.3121 70.3225 58.2685 70.4703 58.1814C70.6181 58.0943 70.7342 57.9769 70.8187 57.8291C70.9032 57.6786 70.9454 57.511 70.9454 57.3262C70.9454 57.0438 70.8543 56.8076 70.6722 56.6175C70.4901 56.4275 70.2552 56.3325 69.9675 56.3325C69.8804 56.3325 69.7946 56.3444 69.7101 56.3681C69.6283 56.3919 69.5491 56.4249 69.4726 56.4671L69.037 55.7148L70.9533 54.0757L71.0365 54.3053H68.3244V53.4066H71.8204V54.3093L70.2802 55.7901L70.2723 55.5089C70.6181 55.5327 70.9124 55.629 71.1552 55.798C71.4007 55.9669 71.5881 56.1847 71.7175 56.4513C71.8494 56.7178 71.9154 57.0095 71.9154 57.3262C71.9154 57.6852 71.827 58.0072 71.6501 58.2923C71.4759 58.5774 71.241 58.803 70.9454 58.9693C70.6524 59.133 70.3278 59.2148 69.9714 59.2148ZM73.0997 59.1079V58.13H74.0776V59.1079H73.0997ZM76.9774 59.2148C76.6924 59.2148 76.4232 59.1594 76.1698 59.0485C75.9164 58.9377 75.696 58.7806 75.5086 58.5774C75.3238 58.3741 75.1905 58.1339 75.1087 57.8568L76.0312 57.6074C76.0972 57.8344 76.2173 58.0099 76.3915 58.1339C76.5683 58.2554 76.7623 58.3147 76.9735 58.3121C77.1609 58.3121 77.3285 58.2685 77.4763 58.1814C77.6241 58.0943 77.7403 57.9769 77.8247 57.8291C77.9092 57.6786 77.9514 57.511 77.9514 57.3262C77.9514 57.0438 77.8604 56.8076 77.6782 56.6175C77.4961 56.4275 77.2612 56.3325 76.9735 56.3325C76.8864 56.3325 76.8006 56.3444 76.7161 56.3681C76.6343 56.3919 76.5551 56.4249 76.4786 56.4671L76.0431 55.7148L77.9593 54.0757L78.0425 54.3053H75.3304V53.4066H78.8264V54.3093L77.2863 55.7901L77.2784 55.5089C77.6241 55.5327 77.9184 55.629 78.1613 55.798C78.4067 55.9669 78.5941 56.1847 78.7235 56.4513C78.8555 56.7178 78.9214 57.0095 78.9214 57.3262C78.9214 57.6852 78.833 58.0072 78.6562 58.2923C78.482 58.5774 78.247 58.803 77.9514 58.9693C77.6584 59.133 77.3338 59.2148 76.9774 59.2148ZM80.2363 59.1079L82.2001 54.3093H79.7098V53.4066H83.2216V54.3093L81.2658 59.1079H80.2363ZM86.5466 59.1079L85.9131 58.4744L90.9849 53.4066L91.6184 54.044L86.5466 59.1079ZM90.4306 59.2267C90.1693 59.2267 89.9304 59.1633 89.714 59.0366C89.5002 58.9073 89.3286 58.7357 89.1993 58.5219C89.07 58.3055 89.0053 58.0653 89.0053 57.8014C89.0053 57.5427 89.0713 57.3051 89.2033 57.0887C89.3352 56.8723 89.5094 56.6994 89.7259 56.57C89.9423 56.4407 90.1772 56.376 90.4306 56.376C90.6919 56.376 90.9308 56.4407 91.1472 56.57C91.3637 56.6967 91.5353 56.8683 91.6619 57.0847C91.7913 57.2985 91.856 57.5374 91.856 57.8014C91.856 58.0653 91.7913 58.3055 91.6619 58.5219C91.5353 58.7357 91.3637 58.9073 91.1472 59.0366C90.9308 59.1633 90.6919 59.2267 90.4306 59.2267ZM90.4306 58.4111C90.5388 58.4111 90.6391 58.3834 90.7315 58.3279C90.8265 58.2725 90.9018 58.1986 90.9572 58.1062C91.0126 58.0138 91.0403 57.9122 91.0403 57.8014C91.0403 57.6905 91.0126 57.5889 90.9572 57.4965C90.9018 57.4041 90.8265 57.3302 90.7315 57.2748C90.6391 57.2193 90.5388 57.1916 90.4306 57.1916C90.3198 57.1916 90.2181 57.2193 90.1258 57.2748C90.0334 57.3302 89.9582 57.4041 89.9001 57.4965C89.8447 57.5889 89.8169 57.6905 89.8169 57.8014C89.8169 57.9122 89.8447 58.0138 89.9001 58.1062C89.9582 58.1986 90.0334 58.2725 90.1258 58.3279C90.2181 58.3834 90.3198 58.4111 90.4306 58.4111ZM87.1009 56.1385C86.8396 56.1385 86.6007 56.0751 86.3843 55.9484C86.1678 55.8191 85.9949 55.6475 85.8656 55.4337C85.7389 55.2173 85.6756 54.9771 85.6756 54.7131C85.6756 54.4545 85.7415 54.2169 85.8735 54.0005C86.0055 53.784 86.1797 53.6111 86.3961 53.4818C86.6126 53.3525 86.8475 53.2878 87.1009 53.2878C87.3622 53.2878 87.5998 53.3525 87.8136 53.4818C88.03 53.6085 88.2029 53.7801 88.3322 53.9965C88.4616 54.2103 88.5262 54.4492 88.5262 54.7131C88.5262 54.9771 88.4616 55.2173 88.3322 55.4337C88.2029 55.6475 88.03 55.8191 87.8136 55.9484C87.5998 56.0751 87.3622 56.1385 87.1009 56.1385ZM87.1009 55.3229C87.2117 55.3229 87.3134 55.2951 87.4058 55.2397C87.4981 55.1843 87.572 55.1104 87.6275 55.018C87.6829 54.9256 87.7106 54.824 87.7106 54.7131C87.7106 54.6023 87.6829 54.5007 87.6275 54.4083C87.572 54.3159 87.4981 54.242 87.4058 54.1866C87.3134 54.1311 87.2117 54.1034 87.1009 54.1034C86.99 54.1034 86.8884 54.1311 86.796 54.1866C86.7036 54.242 86.6297 54.3159 86.5743 54.4083C86.5189 54.5007 86.4912 54.6023 86.4912 54.7131C86.4912 54.824 86.5189 54.9256 86.5743 55.018C86.6297 55.1104 86.7036 55.1843 86.796 55.2397C86.8884 55.2951 86.99 55.3229 87.1009 55.3229Z" fill="black"/>
</g>
<path d="M57.537 58.1912L53.5265 52.2592L61.527 52.2454L57.537 58.1912Z" fill="black"/>
<path d="M0.114418 76.1144C0.0840878 55.9882 8.05007 36.6744 22.2599 22.4216C36.4698 8.16887 55.7595 0.144712 75.8857 0.11438C96.0118 0.0840483 115.326 8.05003 129.578 22.2599C143.831 36.4698 151.855 55.7595 151.886 75.8856L145.331 75.8955C145.303 57.5078 137.972 39.8842 124.951 26.9017C111.929 13.9192 94.2833 6.64125 75.8955 6.66896C57.5078 6.69667 39.8842 14.0277 26.9017 27.0494C13.9192 40.0711 6.64129 57.7167 6.669 76.1045L0.114418 76.1144Z" fill="black"/>
<g filter="url(#filter1_b_450_116)">
<path d="M64.2536 49.1079V47.2233H59.2016V45.4416L62.852 37.7053H65.0296L61.3792 45.4416H64.2536V42.4722H66.1857V45.4416H67.2547V47.2233H66.1857V49.1079H64.2536ZM68.8368 49.0921V47.4292L73.7146 43.0819C74.0947 42.7441 74.3587 42.4247 74.5065 42.1238C74.6543 41.8229 74.7282 41.5325 74.7282 41.2528C74.7282 40.8727 74.6464 40.5348 74.4827 40.2392C74.3191 39.9383 74.0921 39.7007 73.8017 39.5265C73.5167 39.3523 73.1867 39.2652 72.8119 39.2652C72.416 39.2652 72.0649 39.3576 71.7587 39.5424C71.4578 39.7218 71.2229 39.962 71.054 40.2629C70.8851 40.5638 70.8059 40.8885 70.8164 41.2369H68.8527C68.8527 40.4767 69.0216 39.8142 69.3594 39.2494C69.7026 38.6845 70.1724 38.2464 70.7689 37.9349C71.3707 37.6234 72.0649 37.4677 72.8515 37.4677C73.58 37.4677 74.2346 37.6314 74.8153 37.9587C75.396 38.2807 75.8526 38.7294 76.1852 39.3048C76.5178 39.8749 76.6841 40.5322 76.6841 41.2765C76.6841 41.8202 76.6102 42.2769 76.4623 42.6464C76.3145 43.0159 76.0928 43.3564 75.7972 43.6679C75.5068 43.9794 75.1452 44.3251 74.7124 44.7052L71.252 47.7697L71.0778 47.2946H76.6841V49.0921H68.8368ZM83.3419 49.1079L82.075 47.8409L92.2186 37.7053L93.4855 38.9801L83.3419 49.1079ZM91.11 49.3455C90.5873 49.3455 90.1096 49.2188 89.6767 48.9654C89.2491 48.7067 88.906 48.3636 88.6473 47.936C88.3886 47.5031 88.2593 47.0227 88.2593 46.4948C88.2593 45.9775 88.3913 45.5023 88.6552 45.0695C88.9192 44.6366 89.2676 44.2908 89.7005 44.0321C90.1334 43.7735 90.6032 43.6441 91.11 43.6441C91.6326 43.6441 92.1103 43.7735 92.5432 44.0321C92.9761 44.2855 93.3192 44.6287 93.5726 45.0616C93.8313 45.4892 93.9606 45.9669 93.9606 46.4948C93.9606 47.0227 93.8313 47.5031 93.5726 47.936C93.3192 48.3636 92.9761 48.7067 92.5432 48.9654C92.1103 49.2188 91.6326 49.3455 91.11 49.3455ZM91.11 47.7143C91.3264 47.7143 91.527 47.6588 91.7118 47.548C91.9018 47.4371 92.0523 47.2893 92.1631 47.1045C92.274 46.9198 92.3294 46.7165 92.3294 46.4948C92.3294 46.2731 92.274 46.0698 92.1631 45.8851C92.0523 45.7003 91.9018 45.5525 91.7118 45.4416C91.527 45.3308 91.3264 45.2754 91.11 45.2754C90.8883 45.2754 90.685 45.3308 90.5002 45.4416C90.3155 45.5525 90.165 45.7003 90.0489 45.8851C89.938 46.0698 89.8826 46.2731 89.8826 46.4948C89.8826 46.7165 89.938 46.9198 90.0489 47.1045C90.165 47.2893 90.3155 47.4371 90.5002 47.548C90.685 47.6588 90.8883 47.7143 91.11 47.7143ZM84.4505 43.169C83.9279 43.169 83.4501 43.0423 83.0173 42.7889C82.5844 42.5303 82.2386 42.1871 81.9799 41.7595C81.7265 41.3267 81.5998 40.8463 81.5998 40.3184C81.5998 39.801 81.7318 39.3259 81.9958 38.893C82.2597 38.4602 82.6081 38.1144 83.041 37.8557C83.4739 37.597 83.9437 37.4677 84.4505 37.4677C84.9731 37.4677 85.4482 37.597 85.8758 37.8557C86.3087 38.1091 86.6545 38.4522 86.9132 38.8851C87.1718 39.3127 87.3012 39.7905 87.3012 40.3184C87.3012 40.8463 87.1718 41.3267 86.9132 41.7595C86.6545 42.1871 86.3087 42.5303 85.8758 42.7889C85.4482 43.0423 84.9731 43.169 84.4505 43.169ZM84.4505 41.5378C84.6722 41.5378 84.8755 41.4824 85.0602 41.3715C85.245 41.2607 85.3928 41.1129 85.5037 40.9281C85.6145 40.7433 85.67 40.5401 85.67 40.3184C85.67 40.0966 85.6145 39.8934 85.5037 39.7086C85.3928 39.5239 85.245 39.3761 85.0602 39.2652C84.8755 39.1543 84.6722 39.0989 84.4505 39.0989C84.2288 39.0989 84.0255 39.1543 83.8408 39.2652C83.656 39.3761 83.5082 39.5239 83.3973 39.7086C83.2865 39.8934 83.2311 40.0966 83.2311 40.3184C83.2311 40.5401 83.2865 40.7433 83.3973 40.9281C83.5082 41.1129 83.656 41.2607 83.8408 41.3715C84.0255 41.4824 84.2288 41.5378 84.4505 41.5378ZM61.4638 56.9858V56.2375H63.8393V56.9858H61.4638ZM65.8579 59.1079V54.4479L64.7889 55.1011V54.048L65.8579 53.4066H66.8319V59.1079H65.8579ZM69.9714 59.2148C69.6864 59.2148 69.4171 59.1594 69.1637 59.0485C68.9103 58.9377 68.6899 58.7806 68.5025 58.5774C68.3178 58.3741 68.1845 58.1339 68.1027 57.8568L69.0252 57.6074C69.0911 57.8344 69.2112 58.0099 69.3855 58.1339C69.5623 58.2554 69.7563 58.3147 69.9675 58.3121C70.1549 58.3121 70.3225 58.2685 70.4703 58.1814C70.6181 58.0943 70.7342 57.9769 70.8187 57.8291C70.9032 57.6786 70.9454 57.511 70.9454 57.3262C70.9454 57.0438 70.8543 56.8076 70.6722 56.6175C70.4901 56.4275 70.2552 56.3325 69.9675 56.3325C69.8804 56.3325 69.7946 56.3444 69.7101 56.3681C69.6283 56.3919 69.5491 56.4249 69.4726 56.4671L69.037 55.7148L70.9533 54.0757L71.0365 54.3053H68.3244V53.4066H71.8204V54.3093L70.2802 55.7901L70.2723 55.5089C70.6181 55.5327 70.9124 55.629 71.1552 55.798C71.4007 55.9669 71.5881 56.1847 71.7175 56.4513C71.8494 56.7178 71.9154 57.0095 71.9154 57.3262C71.9154 57.6852 71.827 58.0072 71.6501 58.2923C71.4759 58.5774 71.241 58.803 70.9454 58.9693C70.6524 59.133 70.3278 59.2148 69.9714 59.2148ZM73.0997 59.1079V58.13H74.0776V59.1079H73.0997ZM76.9774 59.2148C76.6924 59.2148 76.4232 59.1594 76.1698 59.0485C75.9164 58.9377 75.696 58.7806 75.5086 58.5774C75.3238 58.3741 75.1905 58.1339 75.1087 57.8568L76.0312 57.6074C76.0972 57.8344 76.2173 58.0099 76.3915 58.1339C76.5683 58.2554 76.7623 58.3147 76.9735 58.3121C77.1609 58.3121 77.3285 58.2685 77.4763 58.1814C77.6241 58.0943 77.7403 57.9769 77.8247 57.8291C77.9092 57.6786 77.9514 57.511 77.9514 57.3262C77.9514 57.0438 77.8604 56.8076 77.6782 56.6175C77.4961 56.4275 77.2612 56.3325 76.9735 56.3325C76.8864 56.3325 76.8006 56.3444 76.7161 56.3681C76.6343 56.3919 76.5551 56.4249 76.4786 56.4671L76.0431 55.7148L77.9593 54.0757L78.0425 54.3053H75.3304V53.4066H78.8264V54.3093L77.2863 55.7901L77.2784 55.5089C77.6241 55.5327 77.9184 55.629 78.1613 55.798C78.4067 55.9669 78.5941 56.1847 78.7235 56.4513C78.8555 56.7178 78.9214 57.0095 78.9214 57.3262C78.9214 57.6852 78.833 58.0072 78.6562 58.2923C78.482 58.5774 78.247 58.803 77.9514 58.9693C77.6584 59.133 77.3338 59.2148 76.9774 59.2148ZM80.2363 59.1079L82.2001 54.3093H79.7098V53.4066H83.2216V54.3093L81.2658 59.1079H80.2363ZM86.5466 59.1079L85.9131 58.4744L90.9849 53.4066L91.6184 54.044L86.5466 59.1079ZM90.4306 59.2267C90.1693 59.2267 89.9304 59.1633 89.714 59.0366C89.5002 58.9073 89.3286 58.7357 89.1993 58.5219C89.07 58.3055 89.0053 58.0653 89.0053 57.8014C89.0053 57.5427 89.0713 57.3051 89.2033 57.0887C89.3352 56.8723 89.5094 56.6994 89.7259 56.57C89.9423 56.4407 90.1772 56.376 90.4306 56.376C90.6919 56.376 90.9308 56.4407 91.1472 56.57C91.3637 56.6967 91.5353 56.8683 91.6619 57.0847C91.7913 57.2985 91.856 57.5374 91.856 57.8014C91.856 58.0653 91.7913 58.3055 91.6619 58.5219C91.5353 58.7357 91.3637 58.9073 91.1472 59.0366C90.9308 59.1633 90.6919 59.2267 90.4306 59.2267ZM90.4306 58.4111C90.5388 58.4111 90.6391 58.3834 90.7315 58.3279C90.8265 58.2725 90.9018 58.1986 90.9572 58.1062C91.0126 58.0138 91.0403 57.9122 91.0403 57.8014C91.0403 57.6905 91.0126 57.5889 90.9572 57.4965C90.9018 57.4041 90.8265 57.3302 90.7315 57.2748C90.6391 57.2193 90.5388 57.1916 90.4306 57.1916C90.3198 57.1916 90.2181 57.2193 90.1258 57.2748C90.0334 57.3302 89.9582 57.4041 89.9001 57.4965C89.8447 57.5889 89.8169 57.6905 89.8169 57.8014C89.8169 57.9122 89.8447 58.0138 89.9001 58.1062C89.9582 58.1986 90.0334 58.2725 90.1258 58.3279C90.2181 58.3834 90.3198 58.4111 90.4306 58.4111ZM87.1009 56.1385C86.8396 56.1385 86.6007 56.0751 86.3843 55.9484C86.1678 55.8191 85.9949 55.6475 85.8656 55.4337C85.7389 55.2173 85.6756 54.9771 85.6756 54.7131C85.6756 54.4545 85.7415 54.2169 85.8735 54.0005C86.0055 53.784 86.1797 53.6111 86.3961 53.4818C86.6126 53.3525 86.8475 53.2878 87.1009 53.2878C87.3622 53.2878 87.5998 53.3525 87.8136 53.4818C88.03 53.6085 88.2029 53.7801 88.3322 53.9965C88.4616 54.2103 88.5262 54.4492 88.5262 54.7131C88.5262 54.9771 88.4616 55.2173 88.3322 55.4337C88.2029 55.6475 88.03 55.8191 87.8136 55.9484C87.5998 56.0751 87.3622 56.1385 87.1009 56.1385ZM87.1009 55.3229C87.2117 55.3229 87.3134 55.2951 87.4058 55.2397C87.4981 55.1843 87.572 55.1104 87.6275 55.018C87.6829 54.9256 87.7106 54.824 87.7106 54.7131C87.7106 54.6023 87.6829 54.5007 87.6275 54.4083C87.572 54.3159 87.4981 54.242 87.4058 54.1866C87.3134 54.1311 87.2117 54.1034 87.1009 54.1034C86.99 54.1034 86.8884 54.1311 86.796 54.1866C86.7036 54.242 86.6297 54.3159 86.5743 54.4083C86.5189 54.5007 86.4912 54.6023 86.4912 54.7131C86.4912 54.824 86.5189 54.9256 86.5743 55.018C86.6297 55.1104 86.7036 55.1843 86.796 55.2397C86.8884 55.2951 86.99 55.3229 87.1009 55.3229Z" fill="black"/>
</g>
<path d="M57.537 58.1912L53.5265 52.2592L61.527 52.2454L57.537 58.1912Z" fill="black"/>
<defs>
<filter id="filter0_b_450_116" x="53.9227" y="32.1886" width="45.317" height="32.317" filterUnits="userSpaceOnUse" color-interpolation-filters="sRGB">
<feFlood flood-opacity="0" result="BackgroundImageFix"/>
<feGaussianBlur in="BackgroundImageFix" stdDeviation="2.6395"/>
<feComposite in2="SourceAlpha" operator="in" result="effect1_backgroundBlur_450_116"/>
<feBlend mode="normal" in="SourceGraphic" in2="effect1_backgroundBlur_450_116" result="shape"/>
</filter>
<filter id="filter1_b_450_116" x="53.9227" y="32.1886" width="45.317" height="32.317" filterUnits="userSpaceOnUse" color-interpolation-filters="sRGB">
<feFlood flood-opacity="0" result="BackgroundImageFix"/>
<feGaussianBlur in="BackgroundImageFix" stdDeviation="2.6395"/>
<feComposite in2="SourceAlpha" operator="in" result="effect1_backgroundBlur_450_116"/>
<feBlend mode="normal" in="SourceGraphic" in2="effect1_backgroundBlur_450_116" result="shape"/>
</filter>
</defs>
</svg>
