<svg width="18" height="18" viewBox="0 0 18 18" fill="none" xmlns="http://www.w3.org/2000/svg">
<path d="M0.5 0.5L17.5 0.5V17.5H0.5L0.5 0.5Z" stroke="black"/>
<path d="M0.5 5H17.5M0.5 9H17.5M0.5 13H17.5" stroke="black" stroke-linecap="round"/>
<path d="M12 0.5V17.5" stroke="black" stroke-linecap="round"/>
<path d="M0.5 2.5L2.5 0.5M0.5 4.5L4.5 0.5M2 5L6 1M4 5L6 3" stroke="black" stroke-linecap="round"/>
<path d="M10.5 0.5L12 2" stroke="black" stroke-linecap="round"/>
<path d="M8.5 0.5L12 4" stroke="black" stroke-linecap="round"/>
<path d="M6.5 0.5L11 5" stroke="black" stroke-linecap="round"/>
<path d="M6 2L9 5" stroke="black" stroke-linecap="round"/>
<path d="M6 4L7 5" stroke="black" stroke-linecap="round"/>
<path d="M12 3L14.5 0.5" stroke="black" stroke-linecap="round"/>
<path d="M12.5 5L17 0.5" stroke="black" stroke-linecap="round"/>
<path d="M12 8L17.5 2.5" stroke="black" stroke-linecap="round"/>
<path d="M13.5 9L17.5 5M16 9L17.5 7.5" stroke="black" stroke-linecap="round"/>
<path d="M0.5 8L3.5 5M3 9L6 6" stroke="black" stroke-linecap="round"/>
<path d="M6 8.5L9.5 5" stroke="black" stroke-linecap="round"/>
<path d="M9 9L12 6" stroke="black" stroke-linecap="round"/>
<path d="M1 9L2.5 13" stroke="black" stroke-linecap="round"/>
<path d="M3 9L4.5 13" stroke="black" stroke-linecap="round"/>
<path d="M5 9L6.5 13" stroke="black" stroke-linecap="round"/>
<path d="M7 9L8.5 13" stroke="black" stroke-linecap="round"/>
<path d="M9 9L10.5 13" stroke="black" stroke-linecap="round"/>
<path d="M11 9L12 11.5" stroke="black" stroke-linecap="round"/>
</svg>
