<svg width="20" height="20" viewBox="0 0 20 20" fill="none" xmlns="http://www.w3.org/2000/svg">
<circle cx="10" cy="10" r="9.5" stroke="black"/>
<path d="M10 4.19444V0.5C11.2476 0.5 12.4829 0.745725 13.6355 1.22314C14.2078 1.46021 14.7542 1.75209 15.2672 2.0939M10 4.19444L12.9713 1.22314M10 4.19444V7.36111M10 7.36111V10H10.5278M10 7.36111L15.2672 2.0939M15.2672 2.0939C15.7874 2.44046 16.2734 2.83836 16.7175 3.28249C17.5997 4.16464 18.2994 5.21191 18.7769 6.36451C19.2543 7.5171 19.5 8.75244 19.5 10H16.5M10.5278 10L16.7175 3.81026M10.5278 10L13.5 10M13.5 10L18 5.5M13.5 10L16.5 10M16.5 10L19 7.5" stroke="black"/>
</svg>
