<svg width="18" height="17" viewBox="0 0 18 17" fill="none" xmlns="http://www.w3.org/2000/svg">
<mask id="path-1-inside-1_102_2" fill="white">
<rect x="18" width="5" height="18" rx="0.5" transform="rotate(90 18 0)"/>
</mask>
<rect x="18" width="5" height="18" rx="0.5" transform="rotate(90 18 0)" stroke="black" stroke-width="2" mask="url(#path-1-inside-1_102_2)"/>
<mask id="path-2-inside-2_102_2" fill="white">
<rect x="18" y="6" width="5" height="18" rx="0.5" transform="rotate(90 18 6)"/>
</mask>
<rect x="18" y="6" width="5" height="18" rx="0.5" transform="rotate(90 18 6)" stroke="black" stroke-width="2" mask="url(#path-2-inside-2_102_2)"/>
<mask id="path-3-inside-3_102_2" fill="white">
<rect x="18" y="12" width="5" height="18" rx="0.5" transform="rotate(90 18 12)"/>
</mask>
<rect x="18" y="12" width="5" height="18" rx="0.5" transform="rotate(90 18 12)" stroke="black" stroke-width="2" mask="url(#path-3-inside-3_102_2)"/>
<path d="M6.5 0.5L6.5 4.5M5.5 6.5L5.5 10.5" stroke="black" stroke-linecap="round"/>
<path d="M3.5 12.5L3.5 16.5" stroke="black" stroke-linecap="round"/>
<path d="M0.5 2.5L2.41213 0.587868C2.46839 0.531607 2.5447 0.5 2.62426 0.5H3.77574C4.04301 0.5 4.17686 0.823143 3.98787 1.01213L1.01213 3.98787C0.823142 4.17686 0.956993 4.5 1.22426 4.5H2.37574C2.4553 4.5 2.53161 4.46839 2.58787 4.41213L5.98787 1.01213C6.17686 0.823142 6.5 0.956993 6.5 1.22426V2.37574C6.5 2.4553 6.46839 2.53161 6.41213 2.58787L4.5 4.5" stroke="black"/>
<path d="M0.5 8.5L2.41213 6.58787C2.46839 6.53161 2.5447 6.5 2.62426 6.5H3.77574C4.04301 6.5 4.17686 6.82314 3.98787 7.01213L1.01213 9.98787C0.823142 10.1769 0.956993 10.5 1.22426 10.5H2.37574C2.4553 10.5 2.53161 10.4684 2.58787 10.4121L5.5 7.5" stroke="black"/>
<path d="M0.5 14.5L2.41213 12.5879C2.46839 12.5316 2.5447 12.5 2.62426 12.5H3.2C3.36569 12.5 3.5 12.6343 3.5 12.8V13.3757C3.5 13.4553 3.46839 13.5316 3.41213 13.5879L1.01213 15.9879C0.823143 16.1769 0.956993 16.5 1.22426 16.5H2.37574C2.4553 16.5 2.53161 16.4684 2.58787 16.4121L3.5 15.5" stroke="black"/>
</svg>
