<svg width="257" height="272" viewBox="0 0 257 272" fill="none" xmlns="http://www.w3.org/2000/svg">
<path fill-rule="evenodd" clip-rule="evenodd" d="M241.417 256.417L241.417 15.5278H196.25L196.25 256.417H241.417ZM248.944 271.472C253.102 271.472 256.472 268.102 256.472 263.944L256.472 7.99997C256.472 3.8425 253.102 0.472198 248.944 0.472198H188.722C184.565 0.472198 181.194 3.8425 181.194 7.99997L181.194 263.944C181.194 268.102 184.565 271.472 188.722 271.472H248.944Z" fill="black"/>
<path fill-rule="evenodd" clip-rule="evenodd" d="M151.083 256.417L151.083 15.5278H105.917L105.917 256.417H151.083ZM158.611 271.472C162.769 271.472 166.139 268.102 166.139 263.944L166.139 7.99997C166.139 3.8425 162.769 0.472198 158.611 0.472198H98.3889C94.2314 0.472198 90.8611 3.8425 90.8611 7.99997L90.8611 263.944C90.8611 268.102 94.2314 271.472 98.3889 271.472H158.611Z" fill="black"/>
<path fill-rule="evenodd" clip-rule="evenodd" d="M60.75 256.417L60.75 15.5278H15.5833L15.5833 256.417H60.75ZM68.2778 271.472C72.4352 271.472 75.8055 268.102 75.8055 263.944L75.8055 7.99997C75.8055 3.8425 72.4352 0.472198 68.2778 0.472198H8.05553C3.89806 0.472198 0.527756 3.8425 0.527756 7.99997L0.527756 263.944C0.527756 268.102 3.89806 271.472 8.05553 271.472H68.2778Z" fill="black"/>
<path fill-rule="evenodd" clip-rule="evenodd" d="M256.472 98.3334C256.472 102.491 253.102 105.861 248.944 105.861L188.722 105.861C184.565 105.861 181.194 102.491 181.194 98.3334C181.194 94.1759 184.565 90.8056 188.722 90.8056L248.944 90.8056C253.102 90.8056 256.472 94.1759 256.472 98.3334ZM166.139 83.2778C166.139 87.4353 162.769 90.8056 158.611 90.8056L98.3889 90.8056C94.2314 90.8056 90.8611 87.4353 90.8611 83.2778C90.8611 79.1203 94.2314 75.75 98.3889 75.75H158.611C162.769 75.75 166.139 79.1203 166.139 83.2778Z" fill="black"/>
<path fill-rule="evenodd" clip-rule="evenodd" d="M75.8055 53.1667C75.8055 57.3242 72.4352 60.6945 68.2778 60.6945L8.05554 60.6945C3.89807 60.6945 0.527763 57.3242 0.527763 53.1667C0.527763 49.0093 3.89807 45.639 8.05554 45.639L68.2778 45.639C72.4352 45.639 75.8055 49.0093 75.8055 53.1667Z" fill="black"/>
<path fill-rule="evenodd" clip-rule="evenodd" d="M241.417 41.2293L213.51 13.323L224.156 2.67713L252.944 31.4653C255.203 33.7241 256.472 36.7877 256.472 39.982L256.472 57.3181C256.472 68.0485 243.499 73.4224 235.911 65.8348L196.25 26.1737L196.25 34.9931L246.557 85.3C254.145 92.8876 248.771 105.861 238.04 105.861L220.704 105.861C217.51 105.861 214.446 104.592 212.187 102.333L183.399 73.5452L194.045 62.8994L221.951 90.8056L230.771 90.8056L184.722 44.757C182.463 42.4983 181.194 39.4347 181.194 36.2403L181.194 18.9043C181.194 8.17377 194.168 2.80002 201.756 10.3876L241.417 50.0486L241.417 41.2293Z" fill="black"/>
<path fill-rule="evenodd" clip-rule="evenodd" d="M151.083 41.2293L123.177 13.323L133.823 2.67713L162.611 31.4653C164.87 33.7241 166.139 36.7877 166.139 39.982L166.139 57.3181C166.139 68.0485 153.165 73.4224 145.578 65.8348L105.917 26.1737L105.917 34.9931L148.878 77.9549L138.233 88.6008L94.3888 44.757C92.13 42.4983 90.8611 39.4347 90.8611 36.2403L90.8611 18.9043C90.8611 8.17377 103.835 2.80002 111.422 10.3876L151.083 50.0486L151.083 41.2293Z" fill="black"/>
<path fill-rule="evenodd" clip-rule="evenodd" d="M60.7499 41.2293L32.8436 13.323L43.4895 2.67713L72.2777 31.4653C74.5365 33.7241 75.8055 36.7877 75.8055 39.982L75.8055 48.6501C75.8055 55.302 70.413 60.6945 63.761 60.6945L55.093 60.6945C51.8986 60.6945 48.8351 59.4256 46.5763 57.1668L15.5833 26.1737L15.5833 34.9931L28.434 47.8438L17.7881 58.4897L4.05544 44.757C1.79666 42.4983 0.527704 39.4347 0.527704 36.2403L0.527703 18.9043C0.527703 8.17386 13.5012 2.79994 21.0888 10.3876L56.3403 45.639L60.7499 45.639L60.7499 41.2293Z" fill="black"/>
</svg>
