<svg width="20" height="20" viewBox="0 0 20 20" fill="none" xmlns="http://www.w3.org/2000/svg">
<path fill-rule="evenodd" clip-rule="evenodd" d="M9.50627 0C7.11978 0.117514 4.95313 1.07162 3.29308 2.57537L4.71036 3.99353C6.00491 2.84984 7.67203 2.11866 9.50627 2.00555V0ZM12.51 2.38977C11.8736 2.18026 11.202 2.04845 10.5063 2.00555V0C11.464 0.0471584 12.3863 0.229044 13.2546 0.527112L12.51 2.38977ZM15.3022 3.99352C14.7445 3.50088 14.1178 3.08477 13.4383 2.76164L14.1829 0.898979C15.1144 1.32767 15.9687 1.89531 16.7194 2.57537L15.3022 3.99352ZM17.9958 9.5C17.8829 7.66452 17.1521 5.99626 16.0091 4.70084L17.4263 3.28269C18.9292 4.94383 19.8828 7.11193 20.0002 9.5H17.9958ZM17.6118 12.5055C17.8212 11.8686 17.953 11.1963 17.9958 10.5H20.0002C19.953 11.4585 19.7712 12.3815 19.4733 13.2506L17.6118 12.5055ZM13.4383 17.2384C15.102 16.4472 16.4496 15.0987 17.2403 13.434L19.1018 14.179C18.1039 16.35 16.3525 18.1025 14.1829 19.101L13.4383 17.2384ZM10.5063 17.9945C11.202 17.9516 11.8736 17.8198 12.51 17.6103L13.2546 19.4729C12.3863 19.771 11.464 19.9529 10.5063 20V17.9945ZM4.71036 16.0065C6.00491 17.1502 7.67203 17.8814 9.50627 17.9945V20C7.11978 19.8825 4.95313 18.9284 3.29308 17.4247L4.71036 16.0065ZM2.77224 13.434C3.09519 14.1139 3.51108 14.7411 4.00347 15.2992L2.58619 16.7173C1.9065 15.9661 1.33917 15.1111 0.910732 14.179L2.77224 13.434ZM2.40077 7.49451C2.14158 8.28272 2.00135 9.12498 2.00135 10C2.00135 10.875 2.14158 11.7173 2.40077 12.5055L0.539259 13.2506C0.189806 12.2313 0.00012207 11.1378 0.00012207 10C0.00012207 8.86218 0.189806 7.76868 0.539259 6.74945L2.40077 7.49451ZM4.00347 4.70085C3.51108 5.25888 3.09519 5.8861 2.77224 6.56606L0.910733 5.821C1.33917 4.88891 1.9065 4.03396 2.58619 3.2827L4.00347 4.70085Z" fill="black"/>
<path fill-rule="evenodd" clip-rule="evenodd" d="M5.41938 4.70308C6.53048 3.73893 7.94797 3.11897 9.50616 3.009V5.01855C8.49965 5.11848 7.58088 5.51689 6.8395 6.12407L5.41938 4.70308ZM6.13261 6.83139L4.71249 5.4104C3.64679 6.64002 3.00186 8.24466 3.00186 10C3.00186 11.7554 3.64678 13.36 4.71247 14.5896L6.1326 13.1686C5.42665 12.3056 5.00309 11.2023 5.00309 10C5.00309 8.79773 5.42665 7.69444 6.13261 6.83139ZM6.83949 13.876L5.41936 15.297C6.53046 16.2611 7.94796 16.8811 9.50616 16.9911V14.9815C8.49965 14.8815 7.58088 14.4831 6.83949 13.876ZM10.5062 14.9815V16.9911C13.9761 16.7462 16.7483 13.9722 16.9929 10.5H14.9846C14.7502 12.8655 12.8702 14.7468 10.5062 14.9815ZM14.9846 9.50001H16.9929C16.8831 7.94073 16.2635 6.52225 15.2998 5.4104L13.8797 6.83139C14.4866 7.57331 14.8848 8.49276 14.9846 9.50001ZM13.1728 6.12407L14.5929 4.70308C13.4819 3.73893 12.0644 3.11897 10.5062 3.009V5.01855C11.5127 5.11848 12.4314 5.51689 13.1728 6.12407Z" fill="black"/>
<path fill-rule="evenodd" clip-rule="evenodd" d="M9.50617 6.02608C7.53165 6.27229 6.00371 7.95763 6.00371 10.0001C6.00371 12.2119 7.79567 14.005 10.0062 14.005C12.0475 14.005 13.7318 12.4759 13.9777 10.5H10.0062H9.50617V10V6.02608ZM13.9777 9.50001C13.7522 7.68805 12.317 6.25188 10.5062 6.02608V9.50001H13.9777Z" fill="black"/>
</svg>
